<?xml version="1.0" standalone="no"?>
<!DOCTYPE svg PUBLIC "-//W3C//DTD SVG 20010904//EN"
 "http://www.w3.org/TR/2001/REC-SVG-20010904/DTD/svg10.dtd">
<svg version="1.0" xmlns="http://www.w3.org/2000/svg"
 width="2380.000000pt" height="2380.000000pt" viewBox="0 0 2380.000000 2380.000000"
 preserveAspectRatio="xMidYMid meet">
<metadata>
Created by potrace 1.11, written by Peter Selinger 2001-2013
</metadata>
<g transform="translate(0.000000,2380.000000) scale(0.100000,-0.100000)"
fill="#000000" stroke="none">
<path d="M5530 19207 c-3 -2 -39 -7 -80 -11 -41 -3 -102 -10 -135 -15 -33 -5
-87 -12 -120 -16 -33 -3 -112 -14 -175 -25 -63 -10 -131 -21 -150 -24 -19 -3
-84 -17 -144 -31 -60 -15 -116 -28 -125 -30 -9 -2 -35 -8 -59 -14 l-42 -12 0
-227 0 -227 159 4 c205 4 288 -11 426 -80 160 -79 256 -156 363 -294 77 -99
73 -93 102 -135 13 -19 32 -43 41 -53 9 -10 44 -73 78 -140 56 -112 103 -243
190 -532 28 -90 111 -447 126 -535 3 -19 7 -46 10 -60 2 -14 7 -41 9 -60 3
-19 8 -46 11 -60 2 -14 7 -36 10 -50 2 -14 7 -38 10 -55 4 -24 54 -314 81
-465 11 -66 13 -75 19 -135 3 -33 10 -96 15 -140 18 -135 19 -148 25 -200 3
-27 7 -66 10 -85 3 -19 7 -54 10 -77 2 -23 11 -99 20 -170 8 -70 18 -150 21
-178 3 -27 7 -57 9 -65 2 -8 7 -45 10 -82 3 -37 8 -76 10 -87 2 -11 6 -44 9
-73 7 -58 14 -114 21 -168 5 -36 12 -94 20 -162 3 -21 7 -55 10 -75 8 -69 15
-127 20 -163 3 -19 7 -53 10 -75 2 -22 7 -58 10 -80 4 -37 10 -83 21 -175 2
-19 8 -62 14 -95 15 -90 61 -394 66 -440 3 -22 9 -65 14 -95 5 -30 12 -72 15
-94 16 -133 51 -324 130 -711 19 -93 36 -181 39 -195 37 -208 103 -458 191
-726 105 -314 384 -914 561 -1202 38 -62 74 -120 79 -130 115 -195 219 -350
404 -602 49 -67 200 -257 226 -286 6 -6 42 -46 80 -89 303 -339 650 -628 1015
-847 120 -72 168 -99 400 -221 108 -57 527 -229 730 -299 107 -37 460 -144
505 -152 11 -3 79 -19 150 -36 72 -17 137 -33 145 -35 8 -2 35 -8 60 -15 25
-6 62 -16 83 -21 l37 -10 0 -2549 0 -2550 665 0 665 0 0 2550 0 2550 23 5 c12
3 99 24 192 46 94 23 179 43 190 45 49 9 63 13 105 24 42 11 205 61 425 130
50 16 122 39 160 53 39 14 104 37 145 51 41 15 89 33 106 41 16 8 68 30 115
50 118 51 505 251 619 320 169 104 447 306 570 415 279 249 557 534 696 715
139 181 337 460 461 651 283 433 545 963 666 1344 48 151 172 609 182 670 3
19 8 42 10 50 2 8 6 26 9 40 5 32 34 187 41 220 3 14 7 36 10 50 3 14 7 36 10
50 3 14 8 39 10 55 3 17 15 77 26 135 11 58 22 121 25 140 3 19 14 87 24 150
11 63 22 138 26 165 3 28 8 59 11 70 2 11 6 36 9 55 2 19 9 60 14 90 5 30 12
73 15 95 3 22 8 56 11 75 4 19 8 44 9 55 2 11 6 40 10 65 8 54 13 89 20 155 3
28 8 61 10 75 2 14 7 50 10 80 3 30 8 66 10 80 2 14 7 50 10 80 3 30 7 71 10
90 2 19 7 59 10 89 3 30 7 57 9 60 2 3 7 38 10 77 4 39 8 80 10 90 2 11 7 46
11 79 4 33 8 71 10 85 2 14 11 86 19 160 9 74 18 152 21 173 5 38 12 94 20
157 3 19 9 76 15 125 6 50 12 106 15 125 12 96 28 225 40 330 10 89 16 127 35
230 11 58 29 161 40 230 12 69 23 136 26 150 13 70 55 309 60 340 5 30 34 177
50 245 2 11 7 33 9 48 3 16 15 68 26 115 11 48 22 95 24 105 2 10 7 27 10 37
3 10 8 27 10 37 55 238 172 532 274 688 25 39 51 75 56 81 6 6 19 23 30 39 56
79 174 199 261 267 69 53 151 96 244 128 91 30 132 35 323 35 l167 0 0 227 c0
207 -2 227 -17 232 -27 8 -312 76 -342 81 -14 2 -43 7 -63 10 -69 9 -103 15
-123 19 -18 3 -41 6 -150 22 -16 2 -46 6 -65 8 -83 10 -137 18 -160 23 -42 9
-490 11 -585 2 -174 -16 -210 -20 -260 -29 -27 -5 -63 -12 -80 -15 -16 -3 -43
-7 -60 -10 -104 -19 -369 -117 -517 -191 -216 -108 -354 -210 -548 -404 -128
-127 -161 -167 -252 -306 -142 -214 -185 -292 -256 -459 -26 -60 -86 -242 -97
-294 -2 -9 -15 -54 -29 -101 -21 -70 -45 -178 -80 -350 -3 -14 -19 -90 -35
-170 -16 -80 -32 -167 -35 -195 -4 -27 -8 -61 -11 -75 -2 -14 -7 -43 -10 -65
-3 -22 -10 -67 -15 -100 -14 -91 -18 -125 -25 -180 -4 -27 -8 -57 -10 -65 -2
-8 -7 -40 -10 -70 -3 -30 -8 -62 -10 -70 -2 -8 -7 -40 -10 -70 -3 -30 -10 -89
-15 -130 -5 -41 -12 -102 -15 -135 -3 -33 -8 -71 -10 -85 -3 -14 -7 -46 -10
-72 -12 -111 -15 -137 -25 -223 -6 -49 -13 -106 -15 -125 -3 -19 -7 -60 -10
-90 -3 -30 -8 -66 -10 -80 -3 -24 -12 -100 -20 -170 -2 -19 -6 -57 -9 -85 -4
-27 -8 -70 -11 -95 -8 -66 -15 -131 -20 -165 -2 -16 -7 -57 -10 -90 -3 -33 -8
-78 -12 -100 -3 -22 -7 -51 -8 -65 -5 -57 -34 -300 -40 -340 -2 -14 -6 -52
-10 -85 -3 -33 -7 -71 -10 -85 -2 -14 -7 -52 -10 -85 -12 -120 -16 -150 -20
-175 -2 -14 -7 -50 -10 -80 -3 -30 -8 -71 -10 -90 -2 -19 -7 -59 -10 -89 -4
-30 -8 -62 -10 -72 -2 -10 -6 -44 -10 -76 -12 -120 -16 -150 -26 -228 -13
-105 -17 -139 -24 -205 -13 -118 -16 -147 -25 -200 -5 -30 -11 -71 -14 -90 -3
-19 -7 -44 -10 -55 -2 -11 -7 -40 -11 -65 -4 -25 -9 -54 -11 -65 -2 -11 -7
-33 -9 -50 -3 -16 -8 -37 -10 -45 -2 -8 -6 -33 -10 -55 -3 -22 -17 -103 -31
-180 -14 -77 -26 -149 -28 -160 -2 -11 -11 -58 -19 -105 -9 -47 -18 -98 -20
-115 -11 -71 -31 -170 -64 -320 -19 -88 -36 -167 -38 -175 -24 -114 -51 -218
-81 -316 -20 -65 -37 -126 -39 -134 -8 -37 -160 -502 -185 -565 -15 -38 -64
-144 -108 -235 -129 -266 -291 -504 -454 -670 -74 -76 -119 -118 -263 -250
-37 -33 -90 -72 -303 -218 -141 -97 -468 -249 -686 -318 -78 -25 -147 -47
-153 -49 -10 -4 -13 1099 -13 5490 l0 5495 -665 0 -665 0 0 -5494 0 -5495
-142 49 c-191 65 -412 155 -471 191 -26 16 -50 29 -53 29 -14 0 -288 172 -304
191 -3 3 -25 19 -50 36 -25 17 -54 39 -65 50 -11 10 -56 47 -100 83 -278 226
-603 639 -745 945 -92 199 -237 609 -275 775 -2 8 -4 15 -5 15 -1 0 -3 7 -5
15 -2 8 -9 33 -15 55 -5 22 -22 92 -36 155 -14 63 -27 122 -29 130 -2 8 -10
45 -19 83 -9 37 -18 82 -21 100 -4 17 -12 59 -20 92 -8 33 -31 146 -50 250
-20 105 -40 208 -45 230 -11 46 -10 39 -50 290 -39 238 -38 231 -45 285 -4 25
-13 83 -21 128 -8 46 -17 101 -19 123 -8 62 -14 111 -19 149 -2 19 -7 71 -11
115 -4 44 -8 87 -10 95 -1 8 -6 49 -10 90 -4 41 -9 82 -10 90 -2 8 -6 44 -9
80 -4 36 -9 81 -11 100 -2 19 -7 62 -10 95 -3 33 -8 76 -10 95 -4 34 -9 76
-21 185 -3 28 -7 66 -9 85 -2 19 -7 62 -10 95 -3 33 -10 101 -16 150 -10 88
-12 108 -24 230 -4 33 -8 71 -10 85 -2 14 -6 57 -10 95 -3 39 -8 86 -10 105
-4 32 -11 113 -20 215 -5 62 -16 167 -20 195 -2 14 -6 61 -10 105 -3 44 -8 91
-10 105 -2 14 -6 61 -10 105 -3 44 -8 91 -10 105 -2 14 -6 50 -10 80 -3 30 -8
66 -10 80 -2 14 -7 52 -10 85 -3 33 -8 74 -10 90 -2 17 -7 57 -11 90 -3 33 -8
71 -9 85 -2 14 -6 50 -9 80 -14 129 -27 229 -36 280 -5 30 -12 73 -15 95 -4
22 -8 51 -11 65 -2 14 -7 45 -10 70 -3 25 -9 63 -14 85 -5 22 -11 64 -15 94
-4 30 -9 63 -11 75 -4 20 -18 108 -28 171 -15 96 -57 290 -87 405 -16 63 -31
122 -33 130 -42 165 -170 484 -258 644 -69 125 -167 288 -177 296 -4 3 -18 21
-31 40 -40 57 -49 67 -195 214 -196 197 -338 302 -561 414 -114 57 -263 121
-314 134 -47 12 -59 15 -100 28 -80 25 -244 56 -345 66 -33 3 -78 7 -100 10
-58 6 -509 16 -515 11z"/>
</g>
</svg>
